<svg xmlns="http://www.w3.org/2000/svg" xmlns:xlink="http://www.w3.org/1999/xlink" width="158.321" height="155.661" viewBox="0 0 158.321 155.661">
  <defs>
    <style>
      .cls-1, .cls-2 {
        fill: #fff;
      }

      .cls-2 {
        stroke: rgba(248,248,248,0.35);
        stroke-miterlimit: 10;
        stroke-width: 4px;
        opacity: 0.42;
      }

      .cls-3 {
        clip-path: url(#clip-path);
      }

      .cls-4 {
        fill: #f90;
      }

      .cls-4, .cls-5 {
        fill-rule: evenodd;
      }
    </style>
    <clipPath id="clip-path">
      <rect id="Rectangle_5654" data-name="Rectangle 5654" class="cls-1" width="111.711" height="111.435" rx="24" transform="translate(3.771 2.622)"/>
    </clipPath>
  </defs>
  <g id="Avatar" transform="translate(2 2)">
    <rect id="Rectangle_4960" data-name="Rectangle 4960" class="cls-2" width="154.321" height="151.661" rx="24" transform="translate(0 0)"/>
    <rect id="Rectangle_5399" data-name="Rectangle 5399" class="cls-1" width="146.78" height="146.417" rx="24" transform="translate(3.771 2.622)"/>
    <g id="Mask_Group_362" data-name="Mask Group 362" class="cls-3" transform="translate(17.534 17.491)">
      <g id="Amazon__company_-Logo.wine_1_" data-name="Amazon_(company)-Logo.wine (1)" transform="translate(3.771 41.507)">
        <path id="Path_56444" data-name="Path 56444" class="cls-4" d="M74.237,33.069c-6.492,4.785-15.9,7.338-24,7.338A43.434,43.434,0,0,1,20.913,29.218c-.608-.55-.063-1.3.666-.87a59.016,59.016,0,0,0,29.337,7.78,58.337,58.337,0,0,0,22.378-4.576c1.1-.467,2.018.72.943,1.517" transform="translate(-4.934 -6.743)"/>
        <path id="Path_56445" data-name="Path 56445" class="cls-4" d="M92.058,29.615c-.827-1.06-5.485-.5-7.576-.253-.637.078-.734-.477-.16-.875,3.71-2.611,9.8-1.858,10.508-.982s-.185,6.983-3.671,9.9c-.535.447-1.046.209-.807-.384.783-1.955,2.538-6.336,1.707-7.4" transform="translate(-20.056 -6.376)"/>
        <path id="Path_56446" data-name="Path 56446" class="cls-5" d="M64.572,3.676V1.138A.626.626,0,0,1,65.214.5H76.578a.633.633,0,0,1,.657.642V3.311a3.577,3.577,0,0,1-.856,1.6L70.49,13.314A12.548,12.548,0,0,1,76.972,14.7a1.156,1.156,0,0,1,.6.987V18.4c0,.37-.409.8-.836.579A13.091,13.091,0,0,0,64.733,19c-.394.214-.807-.214-.807-.583V15.843a3.069,3.069,0,0,1,.418-1.746l6.822-9.784H65.229a.629.629,0,0,1-.656-.637M23.117,19.514H19.66a.653.653,0,0,1-.618-.588V1.182a.649.649,0,0,1,.666-.637h3.224a.651.651,0,0,1,.627.593v2.32h.063A4.563,4.563,0,0,1,28.175.17c2.164,0,3.516,1.045,4.488,3.287A5.106,5.106,0,0,1,41.44,2.111c1.094,1.493.87,3.662.87,5.563l0,11.2a.653.653,0,0,1-.666.642H38.187a.657.657,0,0,1-.622-.642v-9.4a22.21,22.21,0,0,0-.1-3.326,1.8,1.8,0,0,0-2.033-1.527,2.3,2.3,0,0,0-2.067,1.454,10.744,10.744,0,0,0-.321,3.4v9.4a.653.653,0,0,1-.666.642H28.928a.654.654,0,0,1-.622-.642l0-9.4c0-1.979.326-4.892-2.13-4.892-2.485,0-2.388,2.84-2.388,4.892v9.4a.653.653,0,0,1-.666.642M87.019.17c5.13,0,7.907,4.406,7.907,10.007,0,5.412-3.068,9.706-7.907,9.706-5.038,0-7.78-4.406-7.78-9.9,0-5.524,2.777-9.818,7.78-9.818m.029,3.623c-2.548,0-2.709,3.472-2.709,5.636s-.034,6.8,2.679,6.8c2.679,0,2.806-3.735,2.806-6.01a16.4,16.4,0,0,0-.515-4.707,2.163,2.163,0,0,0-2.261-1.717m14.53,15.721H98.135a.657.657,0,0,1-.622-.642l0-17.749a.654.654,0,0,1,.666-.579h3.2a.662.662,0,0,1,.618.5V3.754h.063c.968-2.426,2.324-3.584,4.712-3.584a4.536,4.536,0,0,1,4.036,2.091c.9,1.42.9,3.808.9,5.524v11.17a.664.664,0,0,1-.666.559h-3.467a.655.655,0,0,1-.613-.559V9.317c0-1.94.224-4.78-2.164-4.78a2.26,2.26,0,0,0-2,1.42,7.852,7.852,0,0,0-.55,3.36v9.555a.665.665,0,0,1-.676.642M55.513,11.038a6.762,6.762,0,0,1-.647,3.666,2.809,2.809,0,0,1-2.392,1.571c-1.327,0-2.106-1.011-2.106-2.5,0-2.947,2.641-3.482,5.145-3.482v.749M59,19.465a.722.722,0,0,1-.817.083,8.427,8.427,0,0,1-1.984-2.3,6.847,6.847,0,0,1-5.7,2.514c-2.913,0-5.174-1.794-5.174-5.388a5.868,5.868,0,0,1,3.686-5.651c1.877-.827,4.5-.973,6.5-1.2V7.07a4.41,4.41,0,0,0-.423-2.5,2.3,2.3,0,0,0-1.94-.9,2.63,2.63,0,0,0-2.777,2.076.723.723,0,0,1-.6.632l-3.35-.36a.609.609,0,0,1-.515-.725C46.672,1.225,50.349,0,53.636,0a7.839,7.839,0,0,1,5.208,1.721c1.682,1.571,1.522,3.666,1.522,5.947v5.388a4.729,4.729,0,0,0,1.3,3.2.654.654,0,0,1-.015.919c-.705.588-1.96,1.682-2.65,2.3l0-.01M10.187,11.038A6.762,6.762,0,0,1,9.541,14.7a2.8,2.8,0,0,1-2.392,1.571c-1.327,0-2.1-1.011-2.1-2.5,0-2.947,2.641-3.482,5.14-3.482v.749m3.487,8.427a.722.722,0,0,1-.817.083,8.511,8.511,0,0,1-1.984-2.3,6.841,6.841,0,0,1-5.7,2.514C2.266,19.757,0,17.963,0,14.369A5.875,5.875,0,0,1,3.686,8.719c1.877-.827,4.5-.973,6.5-1.2V7.07a4.448,4.448,0,0,0-.418-2.5,2.313,2.313,0,0,0-1.94-.9A2.636,2.636,0,0,0,5.047,5.743a.723.723,0,0,1-.6.632l-3.355-.36a.612.612,0,0,1-.515-.725C1.352,1.225,5.023,0,8.31,0a7.839,7.839,0,0,1,5.208,1.721C15.2,3.292,15.04,5.388,15.04,7.669v5.388a4.728,4.728,0,0,0,1.3,3.2.649.649,0,0,1-.01.919c-.705.588-1.96,1.682-2.65,2.3l-.01-.01"/>
      </g>
    </g>
  </g>
</svg>
