<svg xmlns="http://www.w3.org/2000/svg" xmlns:xlink="http://www.w3.org/1999/xlink" width="158.321" height="155.661" viewBox="0 0 158.321 155.661">
  <defs>
    <style>
      .cls-1, .cls-2 {
        fill: #fff;
      }

      .cls-2 {
        stroke: rgba(248,248,248,0.35);
        stroke-miterlimit: 10;
        stroke-width: 4px;
        opacity: 0.42;
      }

      .cls-3 {
        clip-path: url(#clip-path);
      }

      .cls-4 {
        fill: #0081fb;
      }

      .cls-5 {
        fill: url(#linear-gradient);
      }

      .cls-6 {
        fill: url(#linear-gradient-2);
      }

      .cls-7 {
        fill: #192830;
      }
    </style>
    <clipPath id="clip-path">
      <rect id="Rectangle_5658" data-name="Rectangle 5658" class="cls-1" width="126.78" height="126.417" rx="24" transform="translate(13.771 12.622)"/>
    </clipPath>
    <linearGradient id="linear-gradient" x1="0.139" y1="0.613" x2="0.891" y2="0.665" gradientUnits="objectBoundingBox">
      <stop offset="0" stop-color="#0064e1"/>
      <stop offset="0.4" stop-color="#0064e1"/>
      <stop offset="0.83" stop-color="#0073ee"/>
      <stop offset="1" stop-color="#0082fb"/>
    </linearGradient>
    <linearGradient id="linear-gradient-2" x1="0.543" y1="0.828" x2="0.543" y2="0.393" gradientUnits="objectBoundingBox">
      <stop offset="0" stop-color="#0082fb"/>
      <stop offset="1" stop-color="#0064e0"/>
    </linearGradient>
  </defs>
  <g id="Avatar" transform="translate(2 2)">
    <rect id="Rectangle_4960" data-name="Rectangle 4960" class="cls-2" width="154.321" height="151.661" rx="24" transform="translate(0 0)"/>
    <rect id="Rectangle_5399" data-name="Rectangle 5399" class="cls-1" width="146.78" height="146.417" rx="24" transform="translate(3.771 2.622)"/>
    <g id="Mask_Group_364" data-name="Mask Group 364" class="cls-3">
      <g id="Meta_Platforms_Inc._logo" transform="translate(13.771 63.06)">
        <path id="Logo0" class="cls-4" d="M4.154,16.845A6.409,6.409,0,0,0,4.9,20.123a2.536,2.536,0,0,0,2.216,1.272c1.083,0,2.074-.269,3.984-2.91,1.53-2.117,3.333-5.089,4.546-6.952L17.7,8.377A30.624,30.624,0,0,1,22.669,2.1,7.533,7.533,0,0,1,27.561,0c2.818,0,5.5,1.633,7.556,4.7a21.477,21.477,0,0,1,3.339,11.938,11.665,11.665,0,0,1-1.38,6,5.767,5.767,0,0,1-5.23,2.909V21.395c2.358,0,2.946-2.166,2.946-4.646A19.629,19.629,0,0,0,32.154,6.493c-1.288-1.987-2.957-3.2-4.793-3.2-1.986,0-3.584,1.5-5.38,4.169-.955,1.419-1.935,3.148-3.036,5.1l-1.212,2.146a54.148,54.148,0,0,1-4.267,6.921c-2.133,2.841-3.955,3.917-6.352,3.917a6.231,6.231,0,0,1-5.757-3.088A11.191,11.191,0,0,1,0,16.7Z"/>
        <path id="Logo1" class="cls-5" d="M3.275,4.988C5.18,2.053,7.928,0,11.08,0a8.417,8.417,0,0,1,5.535,2.088c2.073,1.692,4.282,4.477,7.038,9.069l.988,1.648a68.648,68.648,0,0,0,4.538,6.984c1.022,1.238,1.737,1.607,2.667,1.607,2.358,0,2.946-2.166,2.946-4.646l3.664-.115a11.665,11.665,0,0,1-1.38,6,5.767,5.767,0,0,1-5.23,2.909,6.511,6.511,0,0,1-4.905-1.954,27.231,27.231,0,0,1-3.956-5.311l-3.449-5.761A39.609,39.609,0,0,0,15.3,6.494a5.828,5.828,0,0,0-4.286-2.318c-1.641,0-3.034,1.151-4.2,2.913Z"/>
        <path id="Logo2" class="cls-6" d="M11.013,4.177c-1.641,0-3.034,1.151-4.2,2.913a18.517,18.517,0,0,0-2.659,9.756A6.409,6.409,0,0,0,4.9,20.123L1.356,22.455A11.191,11.191,0,0,1,0,16.7,22,22,0,0,1,3.275,4.988C5.18,2.053,7.928,0,11.08,0Z"/>
        <path id="Text" class="cls-7" d="M46.532.808h4.805l8.17,14.78L67.678.808h4.7V25.094h-3.92V6.481L61.293,19.37H57.615L50.451,6.481V25.094h-3.92ZM84.661,9.863c-2.811,0-4.5,2.116-4.909,4.736h9.541c-.2-2.7-1.753-4.736-4.631-4.736Zm-8.8,6.228c0-5.513,3.563-9.525,8.864-9.525,5.214,0,8.328,3.961,8.328,9.819v1.077H79.751a5.236,5.236,0,0,0,5.412,4.77,7.162,7.162,0,0,0,5.395-2.1l2.082,2.55a10.823,10.823,0,0,1-7.616,2.845c-5.739,0-9.159-4.185-9.159-9.436Zm21.944-5.88H94.2V7h3.608V1.693h3.782V7h5.482v3.21h-5.482v8.135c0,2.778.888,3.765,3.071,3.765a12.7,12.7,0,0,0,2.411-.226v3.175a11.263,11.263,0,0,1-3.14.433q-6.124,0-6.124-6.7ZM123,13.332A5.1,5.1,0,0,0,118.054,10c-3.236,0-5.308,2.3-5.308,6.037,0,3.647,1.907,6.054,5.153,6.054a5.321,5.321,0,0,0,5.1-3.331Zm3.782,11.762h-3.712V22.561a6.98,6.98,0,0,1-5.985,2.966c-4.919,0-8.206-4.118-8.206-9.488,0-5.422,3.366-9.472,8.415-9.472a6.906,6.906,0,0,1,5.776,2.759V7h3.712Z"/>
      </g>
    </g>
  </g>
</svg>
